# xmcd
#
# Track frame offsets: 
#        150
#        13045
#        25584
#        38049
#        50390
#        62442
#        78865
#        89497
#        102126
#        112636
#        127203
#        139362
#
# Disc length: 2011 seconds
#
# Revision: 0
# Processed by: cddbd v1.5.2PL0 Copyright (c) Steve Scherf et al.
# Submitted via: ExactAudioCopy v0.99pb4
#
DISCID=8f07d90c
DTITLE=Baudcom, Terry - In a Groove
DYEAR=2011
DGENRE=Bluegrass
TTITLE0=Do You Wrong Kind Of Girl
TTITLE1=Good Time Mountain Man
TTITLE2=Nothin' Like The Scorn Of A Lover
TTITLE3=In A Groove
TTITLE4=Stepping Stones
TTITLE5=My Eyes Shall Be On Canaan's Land
TTITLE6=Open Up Your Heart
TTITLE7=Young Lillie's Dream
TTITLE8=There Ain't No Future In The Past
TTITLE9=I Wish You Knew
TTITLE10=The Sentence
TTITLE11=The Next Last Time
EXTD=
EXTT0=
EXTT1=
EXTT2=
EXTT3=
EXTT4=
EXTT5=
EXTT6=
EXTT7=
EXTT8=
EXTT9=
EXTT10=
EXTT11=
PLAYORDER=
